<svg aria-hidden="true" style="position: absolute; width: 0; height: 0; overflow: hidden;" version="1.1" xmlns="http://www.w3.org/2000/svg" xmlns:xlink="http://www.w3.org/1999/xlink">
<defs>


   <symbol id="icon-eva_menu-fill" viewBox="0 0 32 32">
<path d="M26.733 14.667h-21.467c-0.7 0-1.267 0.567-1.267 1.267v0.133c0 0.7 0.567 1.267 1.267 1.267h21.467c0.7 0 1.267-0.567 1.267-1.267v-0.133c0-0.7-0.567-1.267-1.267-1.267z"></path>
<path d="M26.733 21.333h-21.467c-0.7 0-1.267 0.567-1.267 1.267v0.133c0 0.7 0.567 1.267 1.267 1.267h21.467c0.7 0 1.267-0.567 1.267-1.267v-0.133c0-0.7-0.567-1.267-1.267-1.267z"></path>
<path d="M26.733 8h-21.467c-0.7 0-1.267 0.567-1.267 1.267v0.133c0 0.7 0.567 1.267 1.267 1.267h21.467c0.7 0 1.267-0.567 1.267-1.267v-0.133c0-0.7-0.567-1.267-1.267-1.267z"></path>
</symbol>

<symbol id="plus" viewBox="0 0 32 32">
<path d="M16 7c0.265 0 0.52 0.105 0.707 0.293s0.293 0.442 0.293 0.707v8c0 0.265-0.105 0.52-0.293 0.707s-0.442 0.293-0.707 0.293h-8c-0.265 0-0.52-0.105-0.707-0.293s-0.293-0.442-0.293-0.707c0-0.265 0.105-0.52 0.293-0.707s0.442-0.293 0.707-0.293h7v-7c0-0.265 0.105-0.52 0.293-0.707s0.442-0.293 0.707-0.293z"></path>
<path d="M15 16c0-0.265 0.105-0.52 0.293-0.707s0.442-0.293 0.707-0.293h8c0.265 0 0.52 0.105 0.707 0.293s0.293 0.442 0.293 0.707c0 0.265-0.105 0.52-0.293 0.707s-0.442 0.293-0.707 0.293h-7v7c0 0.265-0.105 0.52-0.293 0.707s-0.442 0.293-0.707 0.293c-0.265 0-0.52-0.105-0.707-0.293s-0.293-0.442-0.293-0.707v-8z"></path>
</symbol>

<symbol id="icon" viewBox="0 0 37 32">
<path fill="#4f62f6" style="fill: var(--color1, #4f62f6)"
 d="M14.798 13.607v-12.541h-13.731v13.497h7.52c-0 4.463-1.962 7.971-6.866 9.14v6.164c7.707-1.544 12.755-6.579 13.063-15.395l0.014-0.865zM36.267 13.607v-12.541h-13.731v13.497h7.52c-0 4.463-1.962 7.971-6.866 9.14v6.164c7.812-1.544 12.761-6.579 13.063-15.395l0.015-0.865zM15.865 13.607c0 4.876-1.339 8.801-3.806 11.726-2.464 2.921-5.97 4.746-10.128 5.579l-1.276 0.256v-8.308l0.819-0.195c2.236-0.533 3.712-1.572 4.645-2.907 0.778-1.115 1.225-2.507 1.358-4.128h-7.476v-15.63h15.865v13.607zM37.333 13.607c-0 4.87-1.309 8.796-3.764 11.724-2.452 2.925-5.962 4.75-10.174 5.582l-1.273 0.251v-8.304l0.819-0.195c2.236-0.533 3.712-1.572 4.645-2.907 0.778-1.115 1.225-2.507 1.358-4.128h-7.476v-15.63h15.865v13.607z"></path>
</symbol>

    <symbol id="icon-x" viewBox="0 0 32 32">
<path stroke-linejoin="round" stroke-linecap="round" stroke-miterlimit="4" stroke-width="2.6667" d="M24 8l-16 16"></path>
<path stroke-linejoin="round" stroke-linecap="round" stroke-miterlimit="4" stroke-width="2.6667" d="M8 8l16 16"></path>
</symbol>



</defs>
</svg>
